<?xml version="1.0" standalone="no"?>
<!DOCTYPE svg PUBLIC "-//W3C//DTD SVG 20010904//EN"
 "http://www.w3.org/TR/2001/REC-SVG-20010904/DTD/svg10.dtd">
<svg version="1.0" xmlns="http://www.w3.org/2000/svg"
 width="1920.000000pt" height="1920.000000pt" viewBox="0 0 1920.000000 1920.000000"
 preserveAspectRatio="xMidYMid meet">
<metadata>
Created by potrace 1.16, written by Peter Selinger 2001-2019
</metadata>
<g transform="translate(0.000000,1920.000000) scale(0.100000,-0.100000)"
fill="#000000" stroke="none">
<path d="M9344 17020 c-34 -13 -54 -50 -54 -98 0 -35 6 -49 29 -73 16 -16 37
-29 45 -29 14 0 16 -103 16 -1083 l0 -1082 -159 -159 c-143 -142 -160 -157
-179 -147 -11 6 -37 11 -56 11 -46 0 -103 -48 -111 -94 -13 -69 49 -146 119
-146 86 0 152 115 103 178 -8 10 28 52 151 175 l162 162 0 1090 0 1090 29 17
c120 68 33 240 -95 188z m-293 -2719 c35 -35 38 -77 9 -114 -41 -52 -116 -42
-145 20 -43 89 65 164 136 94z"/>
<path d="M11022 16675 c-17 -14 -33 -38 -37 -54 -9 -41 17 -96 54 -116 l31
-16 0 -942 0 -942 -405 -405 -405 -405 -58 3 c-55 3 -61 1 -90 -28 -61 -61
-47 -153 31 -193 63 -32 143 5 167 78 10 30 9 41 -7 73 l-19 37 413 415 413
416 0 947 0 946 31 16 c36 19 63 76 54 114 -4 14 -18 38 -33 54 -35 37 -97 38
-140 2z m-767 -2930 c45 -44 29 -116 -30 -141 -86 -36 -159 72 -95 141 32 34
91 35 125 0z"/>
<path d="M8305 16597 c-28 -28 -35 -43 -35 -75 0 -43 27 -87 60 -97 20 -6 20
-19 20 -953 l0 -947 380 -380 380 -380 -11 -31 c-30 -77 46 -160 127 -140 75
19 102 126 44 181 -27 26 -33 27 -88 23 l-59 -6 -367 367 -366 366 0 946 0
947 25 6 c32 8 65 61 65 103 0 48 -44 93 -97 100 -39 5 -46 2 -78 -30z"/>
<path d="M9670 16317 c-33 -16 -70 -73 -70 -107 0 -38 39 -92 83 -113 l37 -19
0 -831 0 -832 -155 -155 -155 -155 0 -1295 0 -1295 -38 -20 c-23 -12 -44 -35
-56 -59 -17 -36 -18 -43 -5 -80 34 -97 158 -115 214 -30 39 60 12 146 -55 174
l-30 12 0 1291 0 1291 155 153 155 154 0 844 0 844 29 15 c39 20 64 62 64 107
0 85 -96 145 -173 106z m118 -53 c31 -36 29 -79 -7 -115 -32 -31 -55 -36 -96
-17 -40 18 -59 61 -45 104 22 65 102 81 148 28z m-325 -4796 c34 -17 46 -39
47 -80 0 -28 -7 -42 -31 -62 -17 -14 -41 -26 -54 -26 -13 0 -37 12 -54 26 -78
66 2 190 92 142z"/>
<path d="M10613 16310 c-36 -21 -63 -66 -63 -103 0 -34 40 -89 77 -107 l33
-15 0 -652 0 -653 -34 -14 c-36 -15 -66 -59 -66 -96 0 -53 57 -110 110 -110
31 0 76 29 89 57 26 56 0 132 -49 148 -20 6 -20 18 -20 664 l0 659 30 12 c91
38 97 170 9 216 -38 19 -78 18 -116 -6z m118 -39 c20 -20 29 -39 29 -61 0 -37
-47 -90 -80 -90 -91 0 -129 123 -51 165 40 22 70 18 102 -14z"/>
<path d="M11560 16047 c-13 -7 -35 -28 -48 -47 -39 -58 -15 -135 53 -167 l35
-17 0 -635 0 -636 -462 -462 c-365 -365 -466 -461 -478 -453 -26 16 -86 11
-112 -10 -38 -29 -52 -72 -39 -113 16 -46 41 -68 88 -73 50 -6 84 13 106 59
16 31 17 43 8 69 l-12 32 466 466 465 465 0 646 0 647 30 12 c42 17 73 64 73
109 0 89 -95 148 -173 108z m111 -46 c20 -20 29 -39 29 -61 0 -37 -47 -90 -79
-90 -89 0 -129 123 -53 164 41 23 71 19 103 -13z"/>
<path d="M7776 15975 c-31 -24 -56 -68 -56 -100 0 -43 35 -94 75 -111 l35 -14
0 -648 0 -647 472 -472 c461 -461 471 -472 460 -498 -35 -76 9 -157 86 -159
53 -1 94 28 106 78 13 49 -1 85 -44 114 -28 19 -43 22 -75 17 l-39 -6 -468
468 -468 468 0 642 0 642 29 16 c86 44 95 157 17 209 -31 20 -104 21 -130 1z
m128 -46 c29 -35 32 -58 12 -98 -32 -60 -120 -61 -151 -1 -21 41 -19 64 11 99
20 25 34 31 64 31 30 0 44 -6 64 -31z"/>
<path d="M10229 15691 c-51 -52 -31 -146 37 -171 l24 -10 0 -512 0 -512 -235
-236 -235 -236 0 -1331 c0 -1299 0 -1332 -19 -1338 -73 -23 -96 -122 -42 -176
57 -57 158 -31 177 46 11 44 -8 88 -49 114 l-37 24 0 1326 0 1326 235 235 235
235 0 516 0 516 37 24 c41 26 60 70 49 114 -19 77 -120 103 -177 46z"/>
<path d="M13588 15027 c-47 -39 -62 -102 -37 -149 10 -19 -48 -79 -650 -682
l-661 -661 0 -453 0 -453 -612 -613 c-337 -337 -629 -627 -649 -644 -33 -29
-39 -31 -69 -21 -111 39 -206 -107 -124 -192 66 -68 163 -50 201 39 14 33 9
75 -10 100 -8 10 141 165 641 665 l652 652 0 455 0 455 653 653 653 653 47
-13 c40 -10 51 -10 82 5 39 19 75 69 75 105 0 38 -30 92 -61 107 -42 22 -99
19 -131 -8z m133 -36 c16 -16 29 -39 29 -51 0 -35 -27 -76 -60 -90 -55 -23
-120 21 -120 83 0 40 49 87 90 87 22 0 41 -9 61 -29z m-2783 -3697 c50 -56 12
-144 -63 -144 -98 0 -118 138 -25 173 26 10 64 -3 88 -29z"/>
<path d="M5773 14983 c-30 -6 -81 -57 -85 -86 -15 -92 68 -173 149 -146 l36
11 658 -658 659 -659 0 -455 0 -455 609 -609 c591 -591 608 -609 598 -635 -37
-99 98 -178 174 -102 58 59 29 159 -52 176 -17 4 -43 1 -61 -6 l-30 -12 -604
604 -604 604 0 455 0 455 -662 662 c-575 576 -660 664 -649 677 18 22 19 88 2
120 -24 45 -83 70 -138 59z m89 -50 c48 -42 35 -123 -23 -147 -103 -43 -170
105 -71 158 30 16 68 11 94 -11z"/>
<path d="M12683 14610 c-38 -15 -56 -55 -51 -110 l5 -49 -338 -338 -339 -338
0 -460 0 -460 -472 -472 -471 -471 -52 5 c-61 6 -96 -11 -115 -57 -38 -93 64
-184 149 -134 39 23 55 63 48 117 l-6 43 474 474 475 475 0 460 0 460 339 339
c307 307 340 337 359 327 37 -20 80 -13 114 18 28 25 33 36 33 76 0 40 -5 51
-33 76 -34 30 -75 37 -119 19z"/>
<path d="M6659 14521 c-23 -24 -29 -38 -29 -74 0 -75 63 -122 135 -100 l33 10
336 -336 336 -336 0 -460 0 -460 514 -514 c429 -429 513 -518 505 -532 -25
-48 1 -128 51 -154 88 -46 190 22 177 118 -11 80 -97 128 -168 93 l-33 -17
-508 508 -508 508 0 460 0 460 -341 341 -341 341 12 35 c26 72 -20 138 -97
138 -36 0 -50 -6 -74 -29z m1976 -2773 c29 -13 55 -55 55 -88 0 -33 -53 -80
-90 -80 -22 0 -41 9 -61 29 -45 45 -37 105 19 135 33 19 44 19 77 4z"/>
<path d="M11683 14270 c-40 -9 -60 -24 -79 -61 -17 -33 -18 -73 -3 -101 10
-19 -31 -63 -460 -492 l-471 -471 0 -845 0 -845 -288 -288 c-281 -281 -289
-288 -314 -276 -35 15 -74 5 -109 -31 -78 -78 12 -209 114 -167 19 8 42 25 51
38 18 26 21 81 7 108 -8 14 39 66 280 307 l289 289 0 850 0 850 463 462 462
463 45 -17 c41 -14 48 -14 82 0 66 28 95 104 64 166 -27 51 -75 73 -133 61z
m85 -50 c48 -45 36 -116 -24 -145 -31 -15 -37 -15 -68 0 -59 28 -71 100 -26
145 27 27 89 27 118 0z"/>
<path d="M7704 14191 c-17 -10 -39 -36 -48 -56 -23 -48 -10 -102 35 -139 32
-27 105 -36 125 -16 7 7 167 -147 477 -457 l467 -466 0 -846 0 -846 287 -287
286 -286 -12 -30 c-38 -92 77 -183 158 -126 95 67 25 218 -88 188 l-39 -11
-281 281 -281 281 0 850 0 850 -465 465 -465 465 15 40 c22 64 0 121 -60 149
-43 21 -73 20 -111 -3z m124 -47 c24 -28 29 -79 9 -105 -53 -69 -157 -37 -157
49 0 82 93 117 148 56z"/>
<path d="M14886 13619 c-14 -11 -33 -34 -41 -50 l-16 -29 -612 0 -612 0 -1265
-1265 -1265 -1265 -177 0 -178 0 -14 34 c-15 36 -59 66 -96 66 -62 0 -118 -70
-105 -131 17 -75 125 -106 178 -51 15 15 27 33 27 40 0 9 50 12 193 12 l192 0
1265 1265 1265 1265 602 0 603 0 14 -35 c47 -111 200 -92 230 27 23 95 -110
178 -188 117z m107 -21 c74 -39 55 -148 -29 -164 -24 -4 -37 0 -62 21 -80 67
-1 192 91 143z"/>
<path d="M4563 13544 c-18 -9 -39 -31 -49 -52 -15 -32 -15 -41 -3 -77 11 -30
23 -45 53 -59 36 -17 43 -18 80 -5 31 11 46 23 59 52 l19 37 556 0 557 0 1265
-1265 1265 -1265 232 0 233 0 14 -35 c27 -63 104 -92 165 -61 84 44 84 168 0
212 -58 30 -133 5 -164 -56 l-16 -30 -227 0 -227 0 -1265 1265 -1265 1265
-566 0 -567 0 -6 24 c-12 48 -91 76 -143 50z m4446 -2560 c25 -20 31 -34 31
-64 0 -30 -6 -44 -31 -64 -33 -28 -59 -32 -92 -14 -33 17 -46 39 -46 78 0 79
77 115 138 64z"/>
<path d="M10343 13450 c-35 -14 -65 -69 -59 -109 6 -36 37 -77 68 -87 17 -5
18 -39 18 -862 l0 -857 -112 -108 c-85 -82 -116 -106 -131 -101 -33 11 -85 -6
-117 -37 -25 -25 -30 -39 -30 -78 0 -53 18 -84 60 -106 47 -24 95 -19 134 15
45 40 54 87 27 143 l-21 42 110 110 110 110 0 863 c0 778 2 862 16 862 8 0 29
13 45 29 23 23 29 38 29 71 0 52 -13 76 -50 95 -32 17 -64 18 -97 5z m-187
-2184 c39 -39 42 -58 14 -103 -31 -52 -97 -57 -140 -11 -37 40 -18 117 34 138
38 16 57 11 92 -24z"/>
<path d="M14166 13129 c-15 -12 -32 -32 -36 -45 l-10 -24 -248 0 -248 0 -260
-260 -260 -260 -33 16 c-43 21 -92 11 -129 -26 -49 -49 -51 -112 -4 -163 62
-66 162 -46 198 40 14 33 9 89 -8 100 -6 3 106 122 248 264 l259 259 241 0
241 0 24 -37 c26 -41 70 -60 114 -49 77 19 103 120 46 177 -37 37 -94 40 -135
8z m-1078 -625 c30 -35 30 -87 -3 -119 -52 -53 -145 -16 -145 57 0 87 91 125
148 62z"/>
<path d="M4994 13056 c-30 -30 -34 -40 -34 -84 0 -43 5 -55 30 -80 60 -60 153
-45 193 31 l19 37 306 0 307 0 226 -226 c218 -218 226 -227 216 -253 -5 -15
-7 -40 -3 -55 19 -78 119 -104 177 -47 49 50 36 136 -26 166 -40 18 -56 19
-90 3 -25 -11 -33 -5 -253 215 l-227 227 -323 0 c-300 0 -322 1 -322 18 -1 43
-57 82 -120 82 -34 0 -48 -6 -76 -34z m128 -7 c28 -15 50 -72 39 -101 -20 -53
-75 -77 -120 -53 -36 18 -51 43 -51 85 0 61 74 100 132 69z"/>
<path d="M8988 13067 c-52 -44 -62 -99 -27 -156 11 -18 33 -38 49 -44 l30 -11
0 -661 0 -660 285 -285 285 -285 0 -262 c0 -234 -2 -263 -16 -263 -9 0 -31
-15 -50 -34 -29 -29 -34 -41 -34 -80 0 -109 123 -162 199 -85 59 59 44 152
-32 192 l-37 19 0 262 0 261 -285 285 -285 285 0 652 0 653 35 14 c63 27 92
104 61 165 -33 62 -125 82 -178 38z m130 -27 c70 -66 3 -180 -87 -149 -32 11
-61 53 -61 88 0 11 12 33 26 50 32 38 87 43 122 11z m572 -2655 c64 -69 -9
-177 -95 -141 -39 16 -55 42 -55 86 0 73 99 109 150 55z"/>
<path d="M3708 12617 c-69 -58 -62 -151 15 -197 37 -23 58 -25 104 -8 l34 12
277 -277 277 -277 1288 0 1289 0 640 -640 640 -640 233 0 c223 0 234 -1 240
-20 3 -10 20 -31 38 -46 26 -22 38 -25 72 -21 50 7 95 53 95 98 0 37 -24 85
-49 99 -53 28 -140 -1 -156 -50 -6 -19 -16 -20 -238 -20 l-232 0 -635 635
-635 635 -1290 0 -1290 0 -274 274 c-248 248 -272 275 -262 294 26 48 5 124
-43 156 -37 24 -105 21 -138 -7z m133 -36 c32 -33 36 -58 14 -100 -20 -40 -66
-57 -105 -41 -33 14 -60 55 -60 90 0 33 53 80 90 80 22 0 41 -9 61 -29z"/>
<path d="M15528 12590 c-27 -28 -30 -35 -26 -85 l3 -55 -235 -235 -235 -235
-1285 0 -1285 0 -640 -640 -640 -640 -378 0 -377 0 -9 23 c-5 13 -24 36 -41
50 -75 64 -190 7 -190 -93 0 -103 117 -157 194 -90 18 17 37 41 40 55 l6 25
383 0 382 0 640 640 640 640 1290 0 1290 0 240 240 240 240 31 -11 c77 -30
160 46 140 127 -20 77 -120 102 -178 44z m-5179 -1835 c40 -20 57 -66 41 -105
-14 -33 -55 -60 -90 -60 -33 0 -80 53 -80 90 0 22 9 41 29 61 33 32 58 36 100
14z"/>
<path d="M14888 12362 c-16 -9 -35 -31 -43 -49 l-16 -33 -994 0 -994 0 -16 30
c-20 38 -43 50 -98 50 -60 0 -97 -40 -97 -104 0 -108 145 -142 195 -46 l16 30
999 0 c858 0 1000 -2 1000 -14 0 -24 59 -75 94 -82 82 -15 162 74 136 151 -17
51 -62 85 -113 85 -23 0 -54 -8 -69 -18z m127 -37 c53 -53 15 -149 -58 -149
-52 0 -87 35 -87 86 0 52 35 88 85 88 25 0 44 -8 60 -25z"/>
<path d="M6772 12290 c-18 -11 -40 -36 -48 -55 l-14 -35 -995 0 -995 0 -14 34
c-15 36 -59 66 -96 66 -62 0 -118 -70 -105 -131 9 -42 58 -79 105 -79 41 0
100 39 100 66 0 12 146 14 1000 14 l999 0 16 -33 c20 -42 62 -67 115 -67 36 0
48 6 75 34 43 45 49 80 24 133 -33 68 -104 91 -167 53z m126 -46 c47 -54 10
-143 -61 -144 -39 0 -64 15 -82 50 -20 39 -11 73 28 106 37 31 80 27 115 -12z"/>
<path d="M13374 11814 c-16 -8 -38 -28 -47 -43 -21 -36 -22 -99 -1 -126 13
-18 7 -27 -108 -142 l-123 -123 -327 0 -327 0 -16 29 c-34 67 -111 82 -165 34
-91 -82 5 -222 116 -169 22 10 40 28 47 46 l11 30 341 0 340 0 123 123 124
124 47 -5 c32 -3 58 1 78 11 32 17 63 70 63 109 0 36 -37 88 -75 104 -43 18
-62 17 -101 -2z m95 -29 c16 -8 34 -27 40 -43 37 -88 -75 -163 -143 -96 -43
44 -33 109 22 138 34 19 46 19 81 1z"/>
<path d="M5889 11651 c-23 -23 -29 -38 -29 -71 0 -35 6 -48 35 -77 32 -32 40
-35 76 -30 44 6 73 27 95 69 l15 28 377 0 377 0 166 -166 166 -166 -15 -41
c-13 -38 -13 -46 1 -79 18 -44 68 -78 113 -78 45 0 97 39 111 83 32 95 -73
192 -159 146 -19 -10 -38 6 -192 160 l-171 171 -392 0 -392 0 -16 30 c-19 37
-43 50 -95 50 -33 0 -48 -6 -71 -29z m1414 -413 c33 -17 46 -39 47 -79 0 -40
-27 -75 -65 -85 -54 -13 -105 28 -105 85 1 70 65 111 123 79z"/>
<path d="M15787 11630 c-14 -11 -29 -29 -32 -40 -6 -20 -19 -20 -858 -20
l-852 0 -280 -280 -280 -280 -756 0 -757 0 -19 37 c-40 77 -137 93 -194 32
-37 -39 -46 -87 -25 -131 44 -93 172 -93 216 0 l15 32 770 0 770 0 275 275
275 275 845 0 845 0 12 -28 c14 -31 60 -62 93 -62 53 0 110 57 110 110 0 29
-27 77 -49 90 -33 17 -96 12 -124 -10z m-3879 -576 c50 -56 12 -144 -63 -144
-98 0 -118 138 -25 173 26 10 64 -3 88 -29z"/>
<path d="M3451 11456 c-31 -17 -50 -53 -51 -94 0 -46 54 -102 99 -102 45 0 87
24 103 60 l13 30 805 0 805 0 220 -220 220 -220 883 0 882 0 10 -24 c25 -68
119 -88 171 -37 38 38 41 106 6 146 -33 38 -101 45 -140 15 -16 -13 -33 -33
-37 -46 l-10 -24 -877 0 -878 0 -220 220 -220 220 -812 0 c-734 0 -813 2 -813
16 0 8 -13 29 -29 45 -33 32 -87 39 -130 15z"/>
<path d="M16503 11149 c-33 -10 -83 -61 -83 -85 0 -12 -114 -14 -798 -14
l-797 0 -175 -175 -175 -175 -1397 0 -1397 0 -16 29 c-21 41 -53 61 -96 61
-46 0 -84 -29 -99 -76 -22 -66 28 -134 99 -134 43 0 75 20 96 61 l16 29 1402
0 1402 0 175 175 175 175 790 0 790 0 15 -32 c21 -45 63 -73 109 -72 129 4
165 172 48 227 -39 19 -39 19 -84 6z m101 -60 c32 -37 33 -68 5 -103 -29 -36
-61 -48 -98 -35 -94 33 -72 169 28 169 32 0 44 -6 65 -31z"/>
<path d="M3105 10958 c-100 -79 -33 -237 92 -213 37 7 93 55 93 81 0 12 134
14 880 14 830 0 881 -1 887 -17 19 -56 88 -86 143 -63 39 16 60 51 60 100 0
108 -143 139 -200 43 l-19 -33 -863 0 c-475 0 -868 4 -874 8 -6 4 -14 17 -18
29 -21 67 -124 96 -181 51z m129 -33 c34 -32 35 -83 2 -121 -31 -37 -84 -38
-121 -4 -55 52 -16 150 60 150 20 0 42 -9 59 -25z"/>
<path d="M7856 10706 c-20 -18 -36 -43 -36 -55 l0 -21 -1432 -1 c-788 -1
-1440 -1 -1448 0 -8 1 -94 -77 -190 -174 l-175 -175 -750 0 -750 0 -13 30
c-15 32 -57 60 -92 60 -34 0 -79 -28 -96 -61 -35 -69 18 -149 98 -149 39 0 57
12 106 74 12 14 85 16 760 16 l747 0 170 170 170 170 1447 0 1447 0 15 -29 c8
-15 32 -36 52 -46 125 -59 232 103 128 195 -50 44 -109 42 -158 -4z m125 -6
c10 -6 26 -24 34 -40 45 -87 -78 -170 -141 -96 -26 30 -31 81 -11 107 28 36
80 49 118 29z"/>
<path d="M14988 10532 c-30 -18 -58 -67 -58 -102 0 -39 30 -88 65 -104 67 -32
133 -10 163 56 l17 37 756 1 757 0 6 -25 c8 -32 61 -65 105 -65 48 0 101 55
101 105 0 49 -53 105 -99 105 -44 0 -88 -25 -106 -60 l-16 -30 -753 0 -754 0
-12 30 c-25 61 -114 88 -172 52z m123 -41 c71 -71 -10 -183 -99 -137 -84 43
-51 163 46 165 13 1 36 -12 53 -28z"/>
<path d="M9190 10367 c-14 -7 -34 -29 -45 -50 l-20 -37 -1497 0 -1497 0 -16
30 c-16 32 -61 60 -95 60 -29 0 -77 -27 -90 -49 -5 -11 -10 -38 -10 -61 0 -33
6 -48 29 -71 47 -47 134 -36 162 20 8 14 18 29 24 33 5 4 681 8 1502 8 l1492
0 12 -22 c19 -39 51 -58 97 -58 110 0 144 148 45 199 -28 14 -62 14 -93 -2z"/>
<path d="M10190 10363 c-30 -11 -60 -47 -66 -80 -13 -68 33 -123 103 -123 45
0 77 20 98 61 l16 29 1667 0 1667 0 100 -100 100 -100 1270 0 1271 0 17 -35
c55 -114 227 -74 227 53 0 44 -39 95 -86 111 -37 13 -44 12 -80 -5 -21 -10
-48 -33 -59 -51 l-20 -32 -1265 -1 -1265 0 -95 95 -95 95 -1681 0 -1682 0 -11
28 c-20 47 -82 73 -131 55z m6385 -218 c58 -28 71 -88 28 -134 -41 -44 -86
-45 -127 -5 -45 46 -32 114 27 139 40 18 33 18 72 0z"/>
<path d="M9284 10011 c-17 -11 -38 -33 -45 -50 l-14 -31 -1215 0 -1215 0 -135
-135 -135 -135 -594 0 -594 0 -112 110 -111 110 -792 0 -791 0 -16 33 c-20 42
-62 67 -115 67 -34 0 -48 -6 -76 -34 -30 -30 -34 -40 -34 -84 0 -43 5 -55 30
-81 53 -53 124 -51 175 5 14 15 25 35 25 45 0 18 27 19 793 19 l792 0 110
-110 110 -110 610 0 610 0 135 135 135 135 1202 0 1202 0 22 -40 c23 -40 69
-70 109 -70 34 0 79 28 100 63 65 106 -59 223 -166 158z m119 -31 c52 -41 40
-124 -21 -149 -59 -25 -122 19 -122 84 0 25 8 40 31 59 37 31 77 33 112 6z
m-5946 -45 c31 -22 43 -65 28 -101 -17 -41 -41 -58 -82 -58 -74 0 -111 97 -58
149 28 29 79 33 112 10z"/>
<path d="M9929 9995 c-58 -32 -63 -123 -8 -169 54 -46 137 -24 161 41 l12 33
1275 0 1275 0 111 -110 112 -110 1492 0 1491 0 10 -24 c12 -33 58 -66 92 -66
64 0 107 44 108 108 0 91 -99 135 -169 76 -17 -14 -31 -32 -31 -40 0 -12 -215
-14 -1498 -14 l-1498 0 -102 105 -102 105 -1285 0 c-1269 0 -1284 0 -1290 20
-17 52 -99 76 -156 45z"/>
<path d="M12372 9714 c-12 -8 -29 -28 -37 -45 l-16 -29 -597 0 -597 0 -135
-135 -135 -135 -322 0 -322 0 -16 34 c-29 60 -91 86 -148 62 -109 -45 -101
-193 13 -227 33 -10 44 -9 76 8 22 11 46 34 57 56 l19 37 332 0 331 0 135 135
135 135 592 0 c356 0 593 -4 593 -9 0 -5 12 -23 26 -40 64 -76 184 -29 184 72
0 56 -43 97 -102 97 -24 0 -54 -7 -66 -16z m-2222 -299 c64 -69 -9 -177 -95
-141 -39 16 -55 42 -55 86 0 73 99 109 150 55z"/>
<path d="M9454 9596 c-19 -19 -34 -41 -34 -50 0 -15 -91 -16 -1013 -16 l-1012
0 -95 -95 -95 -95 -2602 0 c-2518 0 -2602 1 -2607 18 -11 33 -53 63 -95 69
-36 5 -44 2 -76 -30 -29 -29 -35 -42 -35 -77 0 -59 41 -100 102 -100 51 0 81
18 98 60 l12 30 2607 0 2606 0 95 95 95 95 1007 0 1007 0 15 -28 c17 -33 54
-52 102 -52 98 0 130 142 44 193 -46 28 -87 22 -126 -17z"/>
<path d="M17224 9466 c-19 -19 -34 -41 -34 -50 0 -15 -235 -16 -2743 -16
l-2742 0 -194 -194 -194 -194 -58 5 c-54 5 -60 4 -88 -25 -25 -24 -31 -39 -31
-72 0 -35 6 -48 35 -77 32 -32 39 -35 78 -30 56 8 97 52 97 105 0 21 -5 43
-12 50 -10 10 28 53 177 202 l190 190 2741 0 2740 0 16 -33 c42 -88 169 -83
213 9 38 80 -20 164 -113 164 -37 0 -50 -6 -78 -34z m142 -20 c74 -63 -9 -186
-96 -141 -35 18 -50 43 -50 85 0 71 89 106 146 56z"/>
<path d="M8916 9300 c-18 -17 -37 -41 -40 -55 l-6 -25 -500 0 -500 0 -14 34
c-29 69 -108 88 -165 40 -73 -61 -30 -184 64 -184 37 0 91 32 100 59 6 21 10
21 510 21 l504 0 16 -30 c19 -38 70 -70 109 -70 43 0 92 35 109 79 46 115 -93
213 -187 131z m135 -29 c35 -35 38 -77 9 -114 -41 -51 -116 -42 -144 18 -13
26 -14 40 -6 62 25 66 92 82 141 34z"/>
<path d="M9700 9188 c-67 -46 -62 -146 10 -183 l30 -16 0 -372 0 -372 285
-285 285 -285 0 -617 0 -618 -25 -6 c-54 -13 -84 -99 -55 -155 14 -25 62 -49
101 -49 45 0 99 56 99 103 0 39 -36 91 -70 102 -20 6 -20 20 -20 629 l0 623
-285 286 -285 286 0 365 0 365 29 16 c67 34 82 111 34 165 -39 43 -87 49 -133
18z"/>
<path d="M11714 9036 c-30 -30 -34 -40 -34 -84 0 -43 5 -55 30 -81 62 -62 152
-47 193 32 l19 37 1068 0 1068 0 6 -25 c8 -32 61 -65 103 -65 43 0 90 41 99
87 19 100 -105 166 -177 94 -16 -16 -29 -37 -29 -45 0 -14 -103 -16 -1075 -16
-979 0 -1075 1 -1075 16 0 9 -15 31 -34 50 -29 29 -41 34 -81 34 -40 0 -52 -5
-81 -34z m140 -21 c41 -38 39 -87 -6 -128 -25 -24 -37 -28 -62 -23 -41 8 -76
49 -76 89 1 76 88 114 144 62z"/>
<path d="M16454 9051 c-17 -10 -36 -33 -44 -50 l-12 -31 -802 0 -801 0 -175
-175 -175 -175 -1391 0 -1392 0 -12 31 c-15 35 -63 69 -98 69 -31 0 -79 -26
-92 -49 -5 -11 -10 -40 -10 -64 0 -60 40 -97 104 -97 46 0 96 34 96 65 0 13
144 15 1408 15 l1407 0 175 175 175 175 790 0 790 -1 18 -38 c49 -107 208 -81
224 36 13 99 -96 167 -183 114z m127 -40 c16 -16 29 -39 29 -51 0 -35 -27 -76
-60 -90 -55 -23 -120 21 -120 83 0 40 49 87 90 87 22 0 41 -9 61 -29z"/>
<path d="M9231 9046 c-26 -15 -50 -51 -51 -78 0 -17 -117 -18 -2320 -18
l-2320 0 -160 -160 -160 -160 -383 0 -382 0 -20 38 c-28 52 -84 79 -134 63
-75 -22 -111 -102 -77 -169 46 -90 178 -85 216 8 l12 30 392 0 391 0 160 160
160 160 2311 0 2312 0 35 -35 c40 -40 81 -46 127 -18 88 52 54 194 -47 193
-21 -1 -49 -7 -62 -14z m-5866 -351 c58 -28 70 -85 29 -134 -54 -64 -155 -24
-154 61 1 37 43 79 88 87 2 1 19 -6 37 -14z"/>
<path d="M10170 8723 c-75 -38 -90 -132 -30 -191 55 -55 133 -47 178 18 l27
39 380 1 380 0 640 -640 640 -640 1290 0 1290 0 227 -227 227 -227 -16 -29
c-32 -62 7 -140 75 -153 99 -19 164 105 93 177 -25 25 -37 29 -83 29 l-53 0
-230 230 -230 230 -1285 0 -1285 0 -640 640 -640 640 -387 0 -386 0 -19 37
c-34 70 -102 97 -163 66z m81 -23 c19 0 59 -53 59 -77 0 -81 -86 -121 -146
-69 -49 41 -32 121 31 147 11 4 26 6 33 3 8 -2 18 -4 23 -4z"/>
<path d="M7837 8643 c-15 -10 -35 -35 -45 -55 l-17 -37 -1440 -1 -1440 0 -175
-175 -175 -175 -758 0 -757 0 -10 24 c-16 44 -50 66 -100 66 -38 0 -51 -5 -72
-27 -34 -37 -42 -75 -24 -117 15 -36 59 -66 96 -66 34 0 79 28 95 60 l16 30
767 0 767 0 175 175 175 175 1431 0 1432 0 12 -31 c16 -39 64 -69 108 -69 106
0 159 128 84 203 -38 37 -103 46 -145 20z m102 -28 c52 -26 63 -102 21 -140
-9 -9 -34 -18 -53 -22 -31 -5 -40 -1 -67 25 -34 35 -39 74 -14 110 28 40 69
50 113 27z"/>
<path d="M9362 8610 c-18 -11 -40 -37 -48 -56 -13 -31 -13 -42 -1 -78 l13 -41
-323 -325 -323 -326 0 -849 0 -850 -461 -461 -462 -462 -58 5 c-56 6 -59 5
-94 -30 -30 -30 -35 -42 -35 -80 0 -55 33 -100 84 -117 44 -14 80 -5 116 32
38 37 47 86 26 130 l-17 32 466 466 465 465 0 850 0 850 324 324 c293 293 325
322 344 312 91 -48 200 61 156 156 -33 68 -109 91 -172 53z m101 -22 c34 -17
46 -39 47 -80 0 -28 -7 -42 -31 -62 -17 -14 -41 -26 -54 -26 -13 0 -37 12 -54
26 -78 66 2 190 92 142z m-1713 -3473 c64 -69 -9 -177 -95 -141 -39 16 -55 42
-55 86 0 73 99 109 150 55z"/>
<path d="M9888 8571 c-28 -25 -33 -36 -33 -76 0 -40 5 -51 33 -76 34 -31 77
-38 114 -18 19 10 47 -15 304 -272 l284 -284 0 -850 0 -850 470 -470 469 -470
-11 -40 c-20 -75 40 -155 116 -155 66 0 134 81 119 141 -20 79 -109 123 -175
88 -19 -10 -63 31 -484 452 l-464 464 0 845 0 845 -289 289 -289 289 5 58 c5
54 4 60 -25 88 -42 43 -98 43 -144 2z m1803 -3380 c35 -35 38 -77 9 -114 -41
-52 -116 -42 -145 19 -19 40 -13 68 23 101 35 32 76 30 113 -6z"/>
<path d="M7545 7910 l-640 -640 -1290 0 -1290 0 -240 -240 c-239 -239 -241
-241 -270 -230 -44 17 -90 4 -120 -32 -23 -27 -26 -39 -22 -77 7 -61 41 -91
103 -91 37 0 51 5 76 31 28 28 30 34 25 83 l-5 53 236 236 237 237 1290 0
1290 0 640 640 640 640 387 0 c338 0 388 2 388 15 0 13 -51 15 -397 15 l-398
0 -640 -640z"/>
<path d="M14033 8460 c-105 -64 -67 -220 54 -220 49 0 96 29 113 69 l12 31
899 0 c767 0 899 -2 899 -14 0 -8 14 -26 31 -40 62 -53 157 -23 174 54 13 60
-43 130 -105 130 -37 0 -81 -30 -96 -66 l-14 -34 -893 0 -892 0 -15 33 c-18
38 -73 77 -109 77 -14 0 -40 -9 -58 -20z m92 -22 c29 -13 55 -55 55 -87 0 -11
-12 -33 -26 -50 -35 -42 -84 -43 -125 -2 -43 44 -33 106 22 137 30 17 42 17
74 2z"/>
<path d="M11676 8391 c-38 -26 -55 -57 -55 -101 0 -129 174 -166 226 -48 l17
38 921 0 920 0 220 -220 220 -220 807 0 807 0 16 -29 c21 -41 53 -61 96 -61
77 0 129 82 95 149 -17 33 -62 61 -96 61 -34 0 -79 -28 -95 -60 l-16 -30 -802
0 -802 0 -220 220 -220 220 -928 0 -927 0 -9 23 c-26 66 -119 97 -175 58z
m103 -26 c34 -17 55 -62 45 -99 -7 -31 -57 -66 -92 -66 -35 0 -82 52 -82 90 0
22 9 41 29 61 33 32 58 36 100 14z"/>
<path d="M10461 8386 c-48 -26 -64 -91 -37 -145 37 -71 155 -65 186 9 l12 30
192 0 191 0 1265 -1265 1265 -1265 542 0 542 0 16 -30 c33 -64 117 -76 169
-23 54 54 21 162 -54 177 -47 9 -98 -17 -115 -59 l-15 -35 -538 0 -537 0
-1265 1265 -1265 1265 -196 0 -197 0 -11 28 c-22 54 -97 77 -150 48z"/>
<path d="M7359 8301 c-16 -16 -29 -37 -29 -45 0 -14 -71 -16 -723 -16 l-722 0
-280 -280 -280 -280 -882 0 -883 0 -19 39 c-39 75 -131 89 -191 29 -62 -61
-44 -154 37 -190 37 -16 49 -17 78 -8 36 12 85 61 85 86 0 12 127 14 892 14
l893 0 280 280 281 280 711 0 711 0 21 -34 c72 -117 246 -26 189 99 -27 60
-120 74 -169 26z m-3894 -555 c74 -31 76 -130 2 -161 -60 -25 -117 16 -117 85
0 42 29 76 78 89 1 1 18 -5 37 -13z"/>
<path d="M8694 8309 c-11 -6 -28 -24 -38 -40 l-17 -29 -177 0 -177 0 -1265
-1265 -1265 -1265 -600 0 -600 0 -16 38 c-17 40 -66 72 -111 72 -64 0 -126
-79 -113 -146 8 -47 65 -94 113 -94 47 0 96 30 113 69 l14 31 610 0 610 0
1265 1265 1265 1265 167 0 c155 0 167 -1 173 -19 19 -62 87 -95 145 -71 99 41
70 201 -37 199 -21 0 -47 -5 -59 -10z m-4196 -2555 c47 -54 10 -143 -61 -144
-39 0 -64 15 -82 50 -20 39 -11 73 28 106 37 31 80 27 115 -12z"/>
<path d="M9505 8201 c-92 -40 -98 -176 -10 -218 l35 -17 0 -1375 0 -1375 -235
-236 -235 -236 0 -562 0 -561 -33 -16 c-112 -53 -73 -223 51 -225 100 -1 158
116 95 190 -14 17 -37 36 -50 41 l-23 9 0 557 0 558 230 230 230 230 0 1385 0
1386 36 13 c43 16 74 63 74 114 0 75 -96 138 -165 108z m80 -33 c29 -13 55
-55 55 -88 0 -33 -53 -80 -90 -80 -41 0 -90 47 -90 87 0 30 23 64 55 81 26 15
38 15 70 0z m-470 -4590 c29 -13 55 -55 55 -88 0 -33 -53 -80 -90 -80 -68 0
-112 84 -74 138 27 39 67 50 109 30z"/>
<path d="M10736 8151 c-78 -51 -75 -165 5 -207 33 -17 82 -18 111 -3 19 10 78
-46 664 -632 l644 -644 0 -455 0 -455 659 -659 c658 -658 659 -658 645 -685
-30 -57 -1 -131 63 -157 68 -29 143 9 161 80 12 45 4 73 -33 112 -27 29 -39
34 -76 34 -24 0 -51 -5 -59 -10 -12 -8 -153 129 -672 648 l-658 657 0 452 0
451 -646 646 c-506 506 -645 650 -639 664 19 46 17 87 -7 122 -41 61 -107 77
-162 41z m103 -26 c40 -20 57 -66 41 -105 -14 -33 -55 -60 -90 -60 -32 0 -80
53 -80 87 0 34 24 71 54 83 31 13 44 12 75 -5z m2789 -3695 c46 -43 41 -109
-11 -140 -43 -27 -61 -25 -99 9 -25 22 -32 36 -32 66 0 71 91 113 142 65z"/>
<path d="M8438 8082 c-29 -18 -58 -68 -58 -99 1 -10 7 -31 14 -48 l14 -30
-649 -650 -649 -650 0 -455 0 -455 -621 -621 -622 -622 -56 5 c-51 5 -60 3
-89 -22 -27 -23 -32 -33 -32 -72 0 -55 12 -78 50 -98 39 -20 68 -19 106 4 41
25 60 72 47 116 l-11 33 629 629 629 630 0 454 0 454 649 649 c591 591 650
647 669 637 52 -28 126 3 153 63 23 53 15 89 -28 132 -28 28 -41 34 -76 34
-23 0 -54 -8 -69 -18z m113 -25 c68 -52 38 -161 -44 -161 -41 0 -82 31 -91 70
-7 28 15 78 41 93 24 14 75 13 94 -2z"/>
<path d="M12125 8057 c-20 -17 -28 -35 -32 -70 -5 -43 -3 -49 30 -82 36 -36
65 -43 110 -26 22 9 36 -3 158 -125 l134 -134 442 0 c426 0 443 -1 443 -19 0
-10 12 -30 26 -45 66 -65 164 -45 200 41 18 42 8 87 -28 123 -59 59 -152 44
-191 -32 l-19 -38 -427 0 -426 0 -132 133 c-103 103 -130 135 -123 147 5 8 10
32 10 53 0 57 -43 97 -104 97 -32 0 -52 -6 -71 -23z m1463 -363 c50 -56 12
-144 -63 -144 -98 0 -118 138 -25 173 26 10 64 -3 88 -29z"/>
<path d="M9193 8026 c-51 -23 -77 -91 -52 -138 10 -18 1 -30 -75 -107 l-86
-86 0 -842 c0 -809 -1 -842 -18 -847 -39 -13 -67 -55 -67 -103 0 -38 5 -49 33
-74 70 -62 172 -20 172 71 0 49 -21 84 -60 100 l-30 12 0 832 0 831 84 84 c77
76 85 82 106 71 33 -18 85 -4 114 31 73 86 -19 210 -121 165z"/>
<path d="M7114 7970 c-25 -10 -74 -66 -74 -86 0 -12 -58 -14 -383 -14 l-383 0
-89 -90 -90 -91 -46 6 c-33 5 -56 2 -78 -9 -38 -20 -51 -44 -51 -96 0 -33 6
-48 29 -71 78 -78 212 11 170 112 -12 30 -11 32 77 120 l89 89 376 0 377 0 12
-31 c36 -86 172 -91 215 -9 51 98 -50 211 -151 170z m81 -32 c29 -13 55 -55
55 -88 0 -33 -53 -80 -90 -80 -41 0 -90 47 -90 87 0 30 23 64 55 81 26 15 38
15 70 0z"/>
<path d="M9903 7828 c-33 -16 -57 -69 -49 -110 6 -35 36 -70 69 -81 16 -6 17
-75 17 -1259 l0 -1253 -150 -150 -150 -150 0 -797 0 -797 -34 -16 c-67 -32
-82 -116 -30 -169 57 -56 147 -36 173 39 12 35 11 45 -3 78 -10 26 -25 42 -46
50 l-30 11 0 796 0 795 150 150 150 150 0 1256 0 1257 30 12 c99 41 70 201
-37 199 -21 0 -48 -5 -60 -11z"/>
<path d="M10813 7568 c-12 -6 -29 -26 -39 -46 -43 -90 51 -180 146 -138 11 4
152 -130 487 -466 l473 -473 0 -461 1 -460 344 -344 c286 -286 342 -347 334
-361 -21 -41 1 -117 40 -139 11 -5 38 -10 61 -10 33 0 48 6 71 29 78 79 -11
211 -116 171 -29 -11 -31 -9 -362 322 l-333 333 0 460 0 460 -479 479 -479
478 5 62 c5 60 4 63 -27 89 -34 29 -86 35 -127 15z"/>
<path d="M8373 7490 c-37 -22 -48 -52 -41 -114 l5 -44 -473 -473 -474 -474 0
-460 0 -460 -375 -375 c-295 -295 -377 -372 -387 -362 -6 6 -31 12 -55 12 -33
0 -50 -7 -77 -31 -44 -39 -54 -83 -30 -134 46 -98 172 -97 216 3 18 41 19 48
5 82 l-14 38 373 373 374 374 0 460 0 460 471 471 472 472 56 -5 c51 -5 58 -3
83 22 35 35 43 74 24 118 -15 38 -59 67 -98 67 -13 0 -38 -9 -55 -20z m-1739
-2806 c54 -55 17 -148 -58 -148 -79 0 -118 93 -61 149 33 34 84 34 119 -1z"/>
<path d="M14814 7131 c-17 -11 -38 -33 -45 -50 l-14 -31 -1012 0 c-998 0
-1012 0 -1018 20 -17 52 -96 76 -154 45 -60 -31 -66 -123 -10 -169 54 -46 131
-26 163 40 l16 34 1005 0 1005 0 19 -39 c21 -40 70 -71 113 -71 36 0 88 37
104 75 18 43 18 59 -1 99 -30 62 -110 84 -171 47z m119 -31 c52 -41 40 -124
-21 -149 -58 -24 -122 19 -122 83 1 72 85 111 143 66z"/>
<path d="M4351 7050 c-61 -61 -45 -153 33 -193 32 -17 43 -18 76 -8 36 10 90
60 90 82 0 5 394 9 998 9 l997 0 17 -30 c9 -16 32 -37 51 -46 102 -49 198 87
118 166 -16 16 -41 32 -57 36 -38 10 -95 -22 -113 -63 l-15 -33 -993 0 -993 0
-14 33 c-21 51 -60 77 -117 77 -40 0 -52 -5 -78 -30z m144 -26 c44 -48 29
-115 -30 -140 -86 -36 -159 72 -95 141 33 35 92 35 125 -1z"/>
<path d="M12919 6955 c-38 -20 -59 -58 -59 -105 0 -77 58 -127 135 -117 l41 6
254 -254 255 -255 270 0 270 0 13 -29 c7 -17 28 -37 50 -47 32 -15 41 -15 77
-3 55 19 83 73 66 130 -28 92 -154 100 -196 13 l-16 -34 -258 0 -259 0 -250
248 -251 249 21 43 c20 39 20 46 7 84 -25 72 -106 106 -170 71z m100 -30 c40
-20 57 -66 41 -105 -13 -32 -55 -60 -89 -60 -11 0 -33 12 -50 26 -42 35 -43
84 -2 125 33 32 58 36 100 14z"/>
<path d="M6280 6873 c-54 -37 -71 -88 -47 -145 l15 -35 -252 -252 -251 -251
-266 0 -267 0 -6 25 c-7 29 -59 65 -94 65 -98 0 -145 -122 -71 -184 55 -47
131 -30 164 35 l16 29 272 0 272 0 255 255 255 254 40 -11 c123 -33 203 129
101 207 -39 30 -99 33 -136 8z m124 -39 c54 -55 17 -148 -58 -148 -79 0 -118
93 -61 149 33 34 84 34 119 -1z"/>
<path d="M10408 5942 c-49 -29 -71 -99 -47 -145 32 -62 90 -89 147 -69 29 10
37 2 520 -482 l492 -491 0 -594 1 -594 -30 -18 c-37 -23 -51 -48 -51 -94 0
-47 13 -71 50 -90 45 -23 85 -19 122 14 28 25 33 36 33 74 0 48 -28 90 -67
103 -17 5 -18 31 -18 602 l0 597 -501 501 c-499 499 -502 502 -485 525 20 29
21 81 1 119 -29 56 -112 77 -167 42z m123 -41 c51 -51 28 -128 -44 -146 -61
-16 -121 56 -97 115 27 65 92 79 141 31z"/>
<path d="M8701 5774 c-35 -30 -49 -83 -32 -122 12 -25 1 -37 -453 -492 l-466
-465 0 -598 c0 -497 -2 -597 -14 -597 -23 0 -65 -50 -72 -85 -15 -80 77 -151
149 -114 37 19 57 52 57 94 0 47 -19 79 -61 100 l-29 16 0 582 0 582 462 462
461 461 53 -5 c49 -5 55 -3 83 25 49 49 38 137 -20 168 -42 21 -84 17 -118
-12z"/>
<path d="M9102 5611 c-43 -44 -49 -87 -19 -149 10 -22 -15 -49 -396 -430
l-407 -407 0 -992 0 -993 -25 -6 c-14 -3 -36 -20 -50 -36 -46 -54 -45 -105 3
-159 58 -65 162 -43 196 42 15 38 15 43 -2 82 -13 28 -31 49 -55 62 l-37 20 0
985 0 985 403 403 402 402 34 -10 c65 -18 122 10 146 74 15 39 15 45 -1 85
-20 50 -55 71 -118 71 -36 0 -50 -6 -74 -29z m135 -16 c52 -37 43 -119 -17
-150 -84 -43 -163 73 -95 140 28 29 79 33 112 10z m-886 -3014 c20 -20 29 -39
29 -61 0 -37 -47 -90 -80 -90 -64 0 -113 65 -90 120 26 62 95 77 141 31z"/>
<path d="M10133 5616 c-34 -15 -63 -61 -63 -98 0 -69 77 -120 146 -98 l37 12
373 -374 374 -375 0 -985 0 -984 -38 -17 c-116 -51 -83 -227 43 -227 99 0 156
95 105 177 -10 18 -33 39 -50 48 l-30 16 0 992 0 992 -379 379 -379 379 5 52
c5 47 3 55 -23 83 -34 38 -77 47 -121 28z m912 -2948 c29 -13 55 -55 55 -88 0
-33 -53 -80 -90 -80 -22 0 -41 9 -61 29 -45 45 -37 105 19 135 33 19 44 19 77
4z"/>
<path d="M10331 5082 c-21 -10 -43 -33 -55 -56 -18 -37 -19 -42 -4 -82 l15
-43 -158 -158 -159 -158 0 -1102 c0 -1085 0 -1102 -20 -1108 -34 -11 -70 -63
-70 -102 0 -47 54 -103 100 -103 64 0 109 43 110 103 0 46 -21 81 -60 97 l-30
12 0 1092 0 1091 158 157 c123 123 160 155 172 148 28 -18 96 -11 125 12 71
55 65 148 -12 199 -35 24 -68 24 -112 1z m108 -35 c8 -7 20 -25 26 -41 35 -83
-72 -154 -139 -91 -47 44 -29 124 34 148 19 7 61 -1 79 -16z"/>
<path d="M8631 4734 c-17 -14 -36 -43 -42 -64 -10 -33 -9 -44 8 -77 11 -22 35
-46 56 -58 l37 -20 0 -662 0 -661 -34 -20 c-48 -28 -65 -85 -42 -134 30 -62
111 -78 165 -32 27 22 31 33 31 73 0 54 -17 83 -60 101 l-30 12 0 663 0 663
30 12 c59 25 90 97 66 155 -30 72 -127 98 -185 49z m113 -15 c81 -37 50 -163
-39 -163 -90 0 -119 119 -40 162 26 15 48 15 79 1z"/>
</g>
</svg>
