<?xml version="1.0" standalone="no"?>
<!DOCTYPE svg PUBLIC "-//W3C//DTD SVG 20010904//EN"
 "http://www.w3.org/TR/2001/REC-SVG-20010904/DTD/svg10.dtd">
<svg version="1.0" xmlns="http://www.w3.org/2000/svg"
 width="1920.000000pt" height="1307.000000pt" viewBox="0 0 1920.000000 1307.000000"
 preserveAspectRatio="xMidYMid meet">
<metadata>
Created by potrace 1.16, written by Peter Selinger 2001-2019
</metadata>
<g transform="translate(0.000000,1307.000000) scale(0.100000,-0.100000)"
fill="#000000" stroke="none">
<path d="M6931 11794 c-12 -15 -21 -37 -21 -50 0 -24 31 -64 50 -64 6 0 10
-84 10 -233 l0 -232 325 -325 325 -325 0 -292 c0 -197 -3 -293 -10 -293 -6 0
-22 -11 -35 -25 -75 -74 25 -190 108 -125 49 38 42 106 -13 138 l-30 17 0 295
0 295 -325 325 -325 326 0 219 0 219 32 26 c24 20 31 35 31 60 0 66 -82 95
-122 44z"/>
<path d="M7405 11306 c-32 -32 -40 -69 -25 -107 18 -42 51 -61 100 -58 40 3
41 3 235 -191 l195 -195 0 -752 0 -752 -29 -20 c-35 -25 -55 -72 -47 -107 10
-40 53 -74 93 -74 45 0 69 14 89 52 23 45 11 91 -31 124 l-35 26 0 767 0 766
-195 195 c-195 194 -196 195 -190 232 7 41 -13 91 -44 108 -36 18 -90 12 -116
-14z"/>
<path d="M8230 10442 c-42 -42 -42 -93 0 -130 l30 -26 0 -810 0 -810 198 -198
198 -198 489 0 490 0 160 -160 160 -160 866 0 866 0 11 -25 c15 -33 72 -60
107 -51 69 18 99 103 55 159 -39 49 -131 41 -160 -13 -11 -20 -22 -20 -868
-20 l-857 0 -160 160 -160 160 -486 0 -487 0 -186 186 -186 186 0 796 0 796
32 26 c27 23 33 34 33 69 0 50 -26 79 -78 88 -31 5 -40 1 -67 -25z"/>
<path d="M2919 10351 c-38 -39 -39 -87 -3 -130 22 -26 33 -31 70 -31 34 0 51
6 69 25 14 13 25 29 25 35 0 7 242 10 773 10 l772 0 485 -485 485 -485 865 0
866 0 25 -29 c51 -58 120 -52 154 12 l20 37 -20 37 c-34 64 -103 70 -154 12
l-25 -29 -846 0 -845 0 -490 490 -490 490 -786 0 -786 0 -12 24 c-29 53 -107
62 -152 17z"/>
<path d="M16925 10208 c-23 -18 -26 -27 -22 -58 5 -37 4 -39 -234 -276 l-239
-239 0 -220 0 -219 -356 -357 -356 -356 -43 5 c-38 4 -47 1 -69 -23 -51 -55
-16 -139 59 -139 62 0 105 69 76 123 -8 14 51 78 350 377 l359 359 0 215 0
215 239 239 c225 225 240 238 268 232 67 -15 112 75 63 124 -26 26 -60 25 -95
-2z"/>
<path d="M15883 10130 c-50 -20 -56 -80 -13 -120 l30 -28 0 -369 0 -368 -389
-389 c-375 -375 -389 -388 -419 -381 -82 18 -137 -81 -77 -140 63 -63 168 4
136 87 -9 25 7 43 380 415 l390 389 -1 373 0 372 29 27 c46 42 49 75 13 112
-32 31 -43 34 -79 20z"/>
<path d="M12408 9660 c-30 -30 -34 -56 -14 -100 4 -11 -95 -116 -342 -363
l-348 -347 -319 0 -320 0 -150 -150 -150 -150 -947 0 c-625 0 -948 3 -948 10
0 19 -40 50 -64 50 -36 0 -76 -37 -76 -70 0 -73 82 -100 130 -42 l26 32 950 0
949 0 150 150 150 150 315 0 315 0 349 349 348 348 43 -5 c37 -4 47 -1 69 21
55 55 15 147 -64 147 -12 0 -35 -14 -52 -30z"/>
<path d="M15079 9625 c-33 -18 -53 -66 -45 -107 6 -30 -4 -41 -258 -295 l-263
-263 -694 0 -694 0 -200 -200 -200 -200 -627 0 c-616 0 -627 0 -638 20 -6 11
-24 27 -41 36 -77 39 -158 -42 -117 -119 17 -34 39 -46 80 -47 28 0 42 7 61
30 l26 30 638 0 638 0 200 200 200 200 694 0 695 0 271 270 270 269 41 -6 c36
-5 46 -1 75 25 28 25 34 37 34 71 0 74 -83 122 -146 86z"/>
<path d="M2095 9395 c-14 -13 -25 -32 -25 -42 0 -25 28 -63 54 -72 30 -12 76
7 86 35 l10 24 422 0 423 0 205 -205 205 -205 1507 0 c1043 0 1508 -3 1508
-10 0 -6 11 -22 25 -35 51 -52 139 -14 139 60 0 74 -88 112 -139 60 -14 -13
-25 -29 -25 -35 0 -7 -465 -10 -1508 -10 l-1507 0 -200 200 -200 200 -426 0
-425 0 -22 30 c-29 38 -72 41 -107 5z"/>
<path d="M10935 9278 c-22 -26 -26 -38 -21 -67 6 -35 3 -39 -187 -228 l-192
-193 -844 0 -844 0 -31 36 c-25 29 -38 36 -67 36 -50 0 -78 -17 -95 -58 -18
-44 -10 -78 28 -109 45 -38 92 -34 134 10 l33 35 853 0 853 0 200 200 c172
173 204 200 225 196 33 -6 85 17 99 42 33 63 -8 132 -78 132 -32 0 -44 -6 -66
-32z"/>
<path d="M7667 9000 l-26 -30 -268 0 -267 0 -181 -180 -181 -180 -1434 0
-1433 0 -32 37 c-27 32 -38 38 -73 38 -50 0 -89 -33 -98 -81 -10 -56 39 -114
97 -114 31 0 77 27 84 50 6 20 12 20 1458 20 l1451 0 181 180 181 180 257 0
257 0 28 -29 c58 -63 152 -29 152 54 0 81 -101 117 -153 55z"/>
<path d="M17424 8738 c-12 -5 -27 -21 -35 -34 l-12 -24 -491 -1 c-270 0 -506
-2 -524 -3 -29 -2 -67 -36 -290 -259 l-257 -257 -494 0 -493 0 -28 30 c-55 59
-151 26 -153 -53 -2 -85 97 -123 154 -59 l29 32 502 0 503 0 260 260 260 260
504 0 504 0 32 -37 c28 -32 38 -38 75 -38 100 0 136 135 49 181 -32 16 -65 17
-95 2z"/>
<path d="M7253 8530 c-31 -13 -45 -46 -38 -88 6 -36 4 -39 -114 -156 l-119
-119 -817 -1 -816 -1 -15 23 c-49 75 -162 17 -125 -64 23 -52 104 -56 126 -6
l10 22 820 0 820 0 129 129 c120 120 131 129 160 124 63 -10 106 64 64 111
-27 29 -55 38 -85 26z"/>
<path d="M2719 8411 c-16 -16 -29 -39 -29 -51 0 -57 59 -108 111 -95 21 5 49
-19 209 -180 l185 -185 643 0 643 0 33 -35 c42 -45 98 -49 140 -10 37 34 37
101 0 139 -41 40 -97 37 -140 -9 l-33 -35 -630 0 -630 0 -179 178 -178 177 4
40 c8 86 -86 128 -149 66z"/>
<path d="M13967 8360 c-36 -29 -37 -77 -2 -110 l25 -23 0 -196 0 -196 -238
-238 -237 -237 -188 0 c-149 0 -187 3 -187 13 0 17 -39 53 -67 61 -30 10 -82
-19 -94 -52 -22 -57 17 -112 79 -112 39 0 82 31 82 58 0 9 52 12 198 12 l197
0 238 238 239 239 -1 201 0 201 35 26 c27 20 34 33 34 59 0 60 -66 93 -113 56z"/>
<path d="M16464 8195 c-20 -20 -25 -34 -23 -66 3 -39 1 -41 -171 -214 l-175
-175 -822 0 -822 0 -6 21 c-9 26 -67 51 -100 43 -35 -9 -65 -50 -65 -91 0 -79
102 -114 153 -53 l26 30 828 0 828 0 180 181 c164 164 183 180 208 175 45 -9
93 17 106 57 30 91 -78 159 -145 92z"/>
<path d="M9129 8085 c-14 -7 -30 -25 -37 -39 l-12 -26 -187 0 -188 0 -237
-237 -238 -238 0 -207 c0 -132 -4 -208 -10 -208 -21 0 -50 -41 -50 -70 0 -17
9 -39 20 -50 46 -46 120 -11 120 55 0 29 -6 39 -30 53 l-30 17 0 195 0 195
238 238 237 237 183 0 c151 0 182 -2 182 -14 0 -22 49 -56 79 -56 33 0 70 25
81 56 13 34 -7 82 -41 99 -34 18 -47 18 -80 0z"/>
<path d="M13084 7984 c-22 -21 -25 -32 -21 -67 l4 -42 -256 -257 -256 -258
-1735 0 -1735 0 -350 -350 c-334 -334 -352 -350 -387 -350 -25 0 -46 -8 -65
-24 -23 -20 -28 -32 -28 -71 0 -39 5 -51 28 -71 79 -68 196 12 156 108 l-12
30 339 339 339 339 1730 0 1730 0 265 266 c246 246 267 265 295 261 93 -14
150 88 85 153 -30 30 -94 27 -126 -6z"/>
<path d="M5914 7945 l-33 -35 -398 0 -398 0 -180 -180 -180 -180 -362 0 c-308
0 -363 2 -363 14 0 22 -49 56 -81 56 -75 0 -112 -98 -55 -146 15 -13 36 -24
47 -24 25 0 79 27 79 40 0 5 7 15 15 24 13 12 69 15 372 15 l358 1 175 175
175 175 404 1 404 0 11 -23 c39 -77 156 -50 156 37 0 47 -37 85 -81 85 -23 0
-40 -9 -65 -35z"/>
<path d="M7977 7899 c-25 -15 -47 -70 -40 -98 5 -20 -34 -63 -263 -292 l-269
-269 -2373 0 -2374 0 -28 30 c-45 49 -114 39 -145 -20 -30 -57 15 -124 82
-124 27 0 42 7 64 32 l29 32 2382 0 2383 0 275 275 c273 273 275 275 310 269
83 -13 135 92 75 151 -26 27 -75 33 -108 14z"/>
<path d="M12142 7760 c-12 -5 -30 -23 -40 -40 l-17 -30 -1547 0 -1546 0 -136
-137 c-134 -135 -137 -137 -177 -134 -52 3 -79 -20 -79 -66 0 -67 74 -97 120
-48 18 19 22 32 17 58 -5 33 0 39 132 171 l136 136 1540 0 1540 0 17 -30 c23
-41 60 -54 102 -36 66 28 70 118 5 151 -32 17 -35 17 -67 5z"/>
<path d="M1545 7518 c-31 -18 -44 -40 -45 -76 0 -47 37 -82 87 -82 36 0 49
-11 293 -255 l255 -255 2362 0 c1300 0 2363 -4 2363 -8 0 -22 43 -52 74 -52
64 0 95 82 47 122 -35 28 -75 23 -104 -12 l-26 -30 -2348 0 -2348 0 -254 254
c-248 248 -254 256 -243 281 19 41 14 64 -17 96 -31 30 -63 36 -96 17z"/>
<path d="M16770 7483 c-23 -9 -60 -45 -60 -60 0 -11 -223 -13 -1277 -13
l-1277 0 -171 -170 -171 -170 -2104 0 -2103 0 -38 41 c-34 37 -42 41 -71 35
-37 -7 -78 -47 -78 -77 0 -28 26 -75 45 -83 35 -13 76 -6 100 19 14 13 25 29
25 35 0 7 651 10 2118 10 l2117 0 170 170 170 170 1272 0 c1051 0 1273 -2
1273 -13 0 -24 45 -57 77 -57 45 0 62 9 79 42 22 42 10 85 -29 109 -33 20 -42
21 -67 12z"/>
<path d="M17485 7303 c-23 -24 -26 -34 -22 -69 l4 -42 -251 -251 -251 -251
-2691 0 -2692 0 -15 24 c-9 13 -32 29 -52 36 -90 30 -153 -84 -83 -150 34 -31
90 -27 125 10 l28 30 2700 0 2700 0 257 257 257 257 45 1 c55 1 84 25 93 78 5
31 1 40 -25 67 -40 40 -88 41 -127 3z"/>
<path d="M14209 7071 c-77 -77 5 -199 105 -157 20 8 41 26 48 40 l11 26 1028
0 1028 0 16 -29 c33 -66 140 -58 169 11 19 44 10 83 -26 113 -45 38 -92 34
-134 -10 l-33 -35 -1021 0 -1021 0 -33 35 c-44 47 -94 49 -137 6z"/>
<path d="M9041 6784 c-27 -35 -26 -59 4 -89 35 -36 78 -33 107 5 l22 30 420 0
421 0 175 -175 175 -175 3035 0 3035 0 17 -30 c44 -78 158 -51 158 37 0 85
-117 116 -156 42 l-15 -29 -3027 0 -3027 0 -175 175 -175 175 -431 0 -430 0
-22 30 c-30 40 -81 42 -111 4z"/>
<path d="M4103 6638 c-82 -21 -86 -131 -7 -164 29 -12 39 -12 68 0 19 8 37 24
41 35 l6 21 1512 0 1512 0 210 -210 210 -210 3462 0 c2302 0 3463 -3 3463 -10
0 -24 41 -50 80 -50 101 0 127 127 34 166 -29 12 -39 12 -68 0 -19 -8 -37 -24
-41 -35 l-6 -21 -3452 0 -3452 0 -210 210 -210 210 -1522 0 c-968 0 -1523 4
-1523 10 0 13 -38 47 -58 52 -10 3 -31 1 -49 -4z"/>
<path d="M6993 6295 c-12 -8 -23 -25 -25 -38 l-3 -22 -2150 -3 -2150 -2 -125
-125 c-116 -116 -128 -125 -155 -119 -64 12 -114 -75 -69 -120 52 -52 135 -8
120 64 -4 25 8 41 116 149 l120 121 2153 0 c1901 0 2154 -2 2165 -15 18 -22
76 -19 100 5 61 61 -26 154 -97 105z"/>
<path d="M3088 5944 c-58 -31 -66 -107 -18 -156 27 -27 36 -30 73 -25 31 4 49
14 68 36 l25 31 1698 0 1697 0 33 -35 c37 -39 69 -44 116 -20 34 18 50 43 50
80 0 100 -129 140 -178 55 l-17 -30 -1702 0 -1702 0 -6 21 c-8 24 -61 59 -90
59 -11 -1 -32 -7 -47 -16z"/>
<path d="M10035 5885 c-75 -74 26 -189 109 -124 14 11 26 27 26 35 0 12 385
14 2833 14 l2832 0 213 -213 c203 -203 212 -214 206 -244 -8 -39 8 -68 43 -81
52 -18 97 16 95 71 -1 44 -35 71 -83 64 -36 -5 -39 -2 -255 214 l-219 219
-2823 0 -2823 0 -33 35 c-41 43 -85 47 -121 10z"/>
<path d="M9515 5748 c-22 -26 -26 -39 -22 -69 5 -36 2 -39 -202 -243 l-206
-206 -3140 0 -3140 0 -260 -260 -260 -260 -47 6 c-45 6 -50 4 -83 -29 -48 -48
-48 -86 0 -134 32 -32 40 -35 73 -30 24 4 47 17 66 38 23 26 27 38 23 69 -5
37 -4 38 252 294 l256 256 3140 0 3139 0 213 213 214 212 45 0 c38 1 51 6 70
28 33 39 31 81 -5 118 -42 41 -90 40 -126 -3z"/>
<path d="M12946 5674 c-28 -28 -33 -62 -15 -96 10 -19 -3 -35 -127 -159 l-139
-139 -804 0 -805 0 -21 25 c-29 35 -65 41 -98 15 -37 -29 -37 -80 -1 -109 36
-29 60 -26 96 9 l30 30 801 0 802 0 145 145 c137 137 146 145 176 139 85 -16
138 79 78 140 -18 17 -37 26 -59 26 -22 0 -41 -9 -59 -26z"/>
<path d="M8833 5581 c-17 -11 -34 -29 -38 -40 l-6 -21 -3483 0 -3482 0 -22 30
c-30 40 -81 42 -111 4 -26 -34 -26 -54 0 -88 30 -38 81 -36 111 4 l22 30 3481
0 3482 0 11 -25 c7 -15 26 -32 44 -39 83 -35 155 61 96 128 -32 35 -66 41
-105 17z"/>
<path d="M14479 5435 c-52 -28 -58 -109 -11 -145 38 -30 88 -26 122 10 l28 30
544 0 543 0 200 -200 200 -200 291 0 292 0 35 -35 c39 -39 70 -44 118 -20 49
26 65 100 31 141 -45 56 -115 55 -158 -1 l-26 -35 -282 0 -281 0 -200 200
-200 200 -551 0 -552 0 -35 35 c-38 38 -66 43 -108 20z"/>
<path d="M13960 5410 c-11 -11 -20 -24 -20 -30 0 -6 -133 -10 -378 -10 l-377
0 -180 -180 -180 -180 -357 0 c-242 0 -358 3 -358 10 0 6 -11 22 -25 35 -74
75 -190 -25 -125 -108 38 -49 106 -42 138 13 l17 30 365 0 365 0 180 180 180
180 361 0 360 0 22 -30 c29 -39 92 -43 116 -8 36 51 5 118 -54 118 -17 0 -39
-9 -50 -20z"/>
<path d="M9622 4959 c-12 -5 -30 -22 -40 -39 l-17 -30 -1686 0 -1685 0 -22 30
c-30 40 -81 42 -111 4 -26 -34 -26 -54 0 -88 30 -38 81 -36 111 4 l22 30 1685
0 1686 0 17 -30 c48 -84 174 -33 153 61 -10 45 -69 76 -113 58z"/>
<path d="M4592 4934 c-12 -8 -22 -22 -22 -30 0 -12 -67 -14 -467 -14 l-468 0
-630 -630 -630 -630 -479 0 -479 0 -32 37 c-24 28 -39 36 -63 36 -61 0 -102
-61 -78 -117 28 -67 118 -70 152 -5 l15 29 492 0 492 0 630 630 630 630 457 0
c299 0 458 -3 458 -10 0 -21 41 -50 70 -50 17 0 39 9 50 20 11 11 20 33 20 50
0 59 -67 90 -118 54z"/>
<path d="M13275 4760 c-144 -145 -151 -150 -191 -150 -49 0 -74 -23 -74 -68 0
-66 74 -96 120 -47 18 19 22 31 17 60 -6 36 -4 39 140 181 l147 144 1005 0
1006 0 175 -175 175 -175 758 0 759 0 28 -30 c37 -39 80 -41 109 -4 27 34 27
64 1 92 -32 34 -84 30 -112 -8 l-22 -30 -755 0 -755 0 -181 180 -181 180
-1009 0 -1010 0 -150 -150z"/>
<path d="M10135 4700 l-130 -130 -1171 0 -1172 0 -36 36 c-33 33 -40 36 -77
31 -22 -3 -49 -13 -60 -23 -25 -22 -34 -77 -19 -113 11 -28 61 -61 92 -61 23
0 76 38 83 59 l6 21 1187 0 1187 0 130 130 130 130 520 0 520 0 135 -135 135
-135 525 0 525 0 158 -158 157 -157 0 -1225 0 -1225 -35 -28 c-31 -24 -35 -33
-35 -73 0 -34 6 -51 25 -69 44 -45 129 -32 154 22 21 46 14 83 -24 119 l-35
33 0 1233 0 1233 -173 173 -172 172 -525 0 -525 0 -135 135 -135 135 -540 0
-540 0 -130 -130z"/>
<path d="M5863 4655 l-35 -35 -997 0 -996 0 -274 -274 c-253 -253 -277 -274
-303 -269 -95 19 -154 -101 -82 -168 39 -37 98 -33 135 9 30 33 37 74 19 102
-7 12 48 72 258 283 l267 267 988 0 989 0 28 -30 c67 -72 180 -7 149 87 -11
35 -51 63 -90 63 -11 0 -37 -16 -56 -35z"/>
<path d="M13449 4484 c-127 -127 -138 -135 -159 -124 -33 18 -85 4 -114 -31
-37 -43 -34 -83 8 -125 47 -47 86 -46 133 1 30 30 35 40 30 69 -5 31 1 39 127
165 l131 131 811 0 811 0 143 -144 144 -143 -3 -46 c-2 -38 2 -51 23 -72 70
-70 187 15 142 103 -16 32 -61 56 -95 50 -15 -2 -60 37 -174 150 l-153 152
-835 0 -834 0 -136 -136z"/>
<path d="M7166 4369 c-19 -15 -26 -30 -26 -54 0 -24 7 -39 26 -54 37 -29 61
-26 94 9 l28 30 2589 0 2588 0 128 -128 127 -127 0 -923 c0 -821 -2 -923 -15
-929 -9 -3 -22 -18 -30 -34 -18 -35 -7 -71 30 -95 21 -14 30 -14 55 -4 58 24
66 77 20 120 l-30 28 0 919 0 918 -143 143 -142 142 -2587 0 -2586 0 -30 30
c-36 35 -60 38 -96 9z"/>
<path d="M15208 4206 c-34 -17 -48 -52 -36 -87 13 -37 41 -53 82 -45 30 6 39
-2 191 -154 l160 -160 680 0 680 0 420 -420 419 -419 -3 -43 c-3 -48 22 -81
69 -92 36 -9 86 25 95 63 14 64 -52 123 -112 100 -26 -10 -43 6 -448 411
l-420 420 -685 0 -685 0 -157 157 c-150 149 -156 157 -151 189 10 63 -45 107
-99 80z"/>
<path d="M9724 4135 l-33 -35 -1563 0 -1563 0 -135 -135 -135 -135 -47 0 c-68
0 -103 -32 -103 -95 0 -39 5 -51 28 -71 30 -26 83 -32 118 -14 31 17 52 68 44
108 -6 35 -4 38 122 164 l128 128 1557 0 1556 0 30 -30 c41 -40 83 -40 123 -1
20 20 29 39 29 61 0 43 -47 90 -91 90 -23 0 -40 -9 -65 -35z"/>
<path d="M12254 4160 c-11 -4 -28 -20 -37 -34 l-17 -26 -723 0 -722 0 -190
-190 -190 -190 -789 0 -790 0 -236 -234 -235 -235 -47 6 c-58 7 -91 -12 -107
-60 -33 -98 87 -171 160 -98 23 24 29 38 29 73 0 43 1 44 228 271 l227 227
790 0 790 0 190 190 190 190 712 0 711 0 30 -30 c60 -60 151 -23 151 60 0 68
-60 106 -125 80z"/>
<path d="M13695 4095 c-47 -46 -22 -134 41 -149 34 -9 79 9 99 40 l15 24 508
0 507 0 435 -435 435 -435 487 0 c479 0 487 0 493 -20 9 -29 61 -53 100 -46
47 9 80 49 80 98 0 33 -6 45 -33 69 -18 16 -44 29 -58 29 -36 0 -78 -25 -92
-54 l-12 -26 -472 0 -473 0 -435 435 -435 435 -517 0 -516 0 -30 30 c-39 39
-92 41 -127 5z"/>
<path d="M13268 3945 c-34 -19 -48 -44 -48 -88 0 -34 36 -87 60 -87 7 0 10
-362 10 -1174 0 -1049 -2 -1174 -15 -1180 -9 -3 -23 -22 -31 -42 -13 -30 -13
-42 -3 -66 37 -90 169 -70 169 26 0 48 -8 65 -41 82 l-29 15 0 1163 0 1164 26
17 c14 9 32 32 40 51 12 29 12 39 1 67 -8 17 -21 38 -30 45 -24 20 -79 24
-109 7z"/>
<path d="M12303 3835 l-28 -35 -639 0 -639 0 -344 -342 c-333 -333 -344 -343
-384 -344 -51 -2 -79 -27 -79 -71 0 -67 74 -97 120 -48 18 19 22 32 17 58 -5
33 2 41 336 375 l342 342 633 0 633 0 33 -35 c36 -38 62 -43 105 -20 75 38 43
155 -43 155 -28 0 -41 -7 -63 -35z"/>
</g>
</svg>
